<svg xmlns="http://www.w3.org/2000/svg" viewBox="0 0 95.96 90"><title>Recurso 1</title><g id="Capa_2" data-name="Capa 2"><g id="Capa_1-2" data-name="Capa 1"><path d="M71.93,37.15H50.72V34.9a3.3,3.3,0,0,0,2.13-3.06v-3a3.3,3.3,0,0,0-3.29-3.28H46.4a3.3,3.3,0,0,0-3.29,3.28v3a3.31,3.31,0,0,0,2.13,3.06v2.25H24A25.65,25.65,0,0,1,41.14,21.44.84.84,0,0,0,41.42,20a11,11,0,0,1-4.52-8.88A11.08,11.08,0,1,1,54.54,20a.83.83,0,0,0,.27,1.48A25.65,25.65,0,0,1,71.93,37.15ZM49.6,38.27V34a2.16,2.16,0,0,0,2.13-2.15v-3a2.17,2.17,0,0,0-2.17-2.16H46.4a2.17,2.17,0,0,0-2.17,2.16v3A2.16,2.16,0,0,0,46.36,34v4.28H20.88V48.46a12.34,12.34,0,0,1,1.84-.16A11.36,11.36,0,0,1,34.07,59.64a11.23,11.23,0,0,1-3.54,8.19,24.05,24.05,0,0,1,5.52,2.73,23.32,23.32,0,0,1,5.65-2.42,10.59,10.59,0,1,1,12.56,0,23.32,23.32,0,0,1,5.65,2.42,24.05,24.05,0,0,1,5.52-2.73,11.16,11.16,0,0,1-3.54-8.19A11.24,11.24,0,0,1,75.08,48.47V38.27Zm-21.33,30a.74.74,0,0,1,.29-.73,9.76,9.76,0,0,0,4-7.9,9.85,9.85,0,1,0-15.68,7.9.75.75,0,0,1-.24,1.32A22.79,22.79,0,0,0,0,90H24.53A23.39,23.39,0,0,1,34.66,71.44a22.07,22.07,0,0,0-5.86-2.58A.75.75,0,0,1,28.27,68.27Zm51,.59a.73.73,0,0,1-.53-.59.72.72,0,0,1,.29-.73,9.85,9.85,0,1,0-11.67,0,.75.75,0,0,1-.24,1.32,22.4,22.4,0,0,0-5.86,2.58A23.39,23.39,0,0,1,71.43,90H96A22.78,22.78,0,0,0,79.31,68.86Z"/></g></g></svg>